<?xml version="1.0" encoding="UTF-8"?>
<svg id="Layer_1" data-name="Layer 1" xmlns="http://www.w3.org/2000/svg" viewBox="0 0 673.08 93.53">
  <defs>
    <style>
      .cls-1 {
        fill: #f05423;
      }

      .cls-2 {
        fill: #0a1422;
      }
    </style>
  </defs>
  <path class="cls-2" d="M88,93.53v-3.12c4.96-.64,5.51-1.01,5.51-7.53v-17.91c0-6.15-.46-6.52-4.78-7.07v-3.03c5.79-.64,11.57-1.84,16.62-3.31v31.31c0,6.24.37,6.89,5.69,7.53v3.12h-23.05Z"/>
  <path class="cls-1" d="M95.29,45.72c-5.1,0-9.67-4.3-9.67-9.53,0-5.51,4.57-9.53,9.8-9.53s9.67,4.03,9.67,9.53-4.3,9.53-9.8,9.53Z"/>
  <path class="cls-2" d="M399.02,93.53v-3.12c4.96-.64,5.51-1.01,5.51-7.53v-17.91c0-6.15-.46-6.52-4.78-7.07v-3.03c5.79-.64,11.57-1.84,16.62-3.31v31.31c0,6.24.37,6.89,5.69,7.53v3.12h-23.05Z"/>
  <path class="cls-1" d="M406.89,45.72c-5.1,0-9.67-4.3-9.67-9.53,0-5.51,4.57-9.53,9.8-9.53s9.67,4.03,9.67,9.53-4.3,9.53-9.8,9.53Z"/>
  <path class="cls-2" d="M74.66,25.62c-1.24-4.41-2.89-8.95-4.41-11.43-2.2-3.72-3.58-4.68-11.16-4.68h-13.77v67.08c0,10.74,1.1,12.26,14.19,13.09v3.86H19.42v-3.86c12.81-.83,13.91-2.2,13.91-13.09V9.5h-12.54c-7.58,0-9.78.83-12.12,4.96-1.65,2.75-2.76,6.06-4.55,11.16H0C.83,17.22,1.65,8.54,2.07.83h3.17c2.07,3.31,3.58,3.17,7.44,3.17h54.55c3.86,0,4.96-.55,7.02-3.17h3.31c0,6.47.55,16.39,1.24,24.38l-4.13.41Z"/>
  <path class="cls-2" d="M198.27,93.53v-3.86c11.3-1.1,11.71-1.93,11.57-16.67l.14-56.2c-11.29,25.21-29.48,64.6-34.3,76.73h-3.58c-4.68-12.54-20.25-50.42-30.72-75.35-2.34,48.21-2.48,59.09-2.48,61.71.14,7.71,3.58,8.82,12.95,9.78v3.86h-32.65v-3.86c7.99-.83,11.29-2.48,12.4-9.92.83-6.06.96-11.02,4.55-61.3.55-7.16-.83-9.5-12.95-10.61v-3.86h23.97l30.44,69.84L210.25,3.99h24.11v3.86c-11.85,1.38-13.36,2.62-13.09,12.26l.55,52.89c.55,14.74.96,15.43,13.09,16.67v3.86h-36.64Z"/>
  <path class="cls-2" d="M313.44,71.63c-.83,3.58-4.55,17.77-5.92,21.9h-66.95v-3.86c12.81-.96,13.78-2.2,13.78-13.5V21.76c0-12.26-1.52-12.95-11.85-13.91v-3.86h42.15c12.95,0,18.32-.14,19.97-.28.14,3.44.69,13.77,1.24,21.08l-4.13.69c-1.24-4.68-2.62-7.58-4.13-10.47-2.2-4.55-5.37-5.51-13.64-5.51h-13.09c-4.27,0-4.55.41-4.55,4.41v30.44h15.29c10.33,0,11.02-2.07,12.67-11.43h4.27v28.38h-4.27c-1.79-9.92-2.89-11.3-12.81-11.3h-15.15v27.41c0,9.64,3.03,10.47,9.92,10.61h12.81c8.4,0,9.78-1.24,12.81-4.82,2.62-2.89,5.51-8.54,7.44-12.67l4.13,1.1Z"/>
  <path class="cls-2" d="M389.1,70.66c-.83,4.27-4.96,18.6-6.34,22.87h-64.05v-3.86c12.53-1.24,13.64-1.93,13.64-13.64V21.35c0-11.71-1.38-12.4-12.4-13.5v-3.86h36.92v3.86c-11.02,1.1-12.54,1.65-12.54,13.5v56.06c0,8.4,1.1,10.33,8.95,10.47.14,0,10.06.14,10.88.14,7.02,0,9.09-.83,12.26-4.27,3.44-3.58,6.34-9.09,8.4-14.19l4.27,1.1Z"/>
  <path class="cls-2" d="M529.71,6.61c-8.82.96-11.71,2.34-12.12,8.68-.14,4.41-.41,10.19-.41,23v55.24h-5.24l-58.96-72.04v34.44c0,12.4.41,18.6.69,22.59.28,7.02,3.72,9.09,13.64,9.92v3.86h-33.47v-3.86c8.54-.69,11.85-2.75,12.4-9.5.41-4.41.69-10.61.69-23.14V20.66c0-3.86-.27-6.06-2.75-9.09-2.62-3.44-5.51-4.27-12.26-4.96v-3.86h20.66l58.4,69.29v-33.75c0-12.81-.28-18.73-.69-22.87-.41-6.2-3.58-8.13-14.6-8.82v-3.86h34.02v3.86Z"/>
  <path class="cls-2" d="M608.06,71.63c-.83,3.58-4.55,17.77-5.92,21.9h-66.94v-3.86c12.81-.96,13.77-2.2,13.77-13.5V21.76c0-12.26-1.52-12.95-11.85-13.91v-3.86h42.15c12.95,0,18.32-.14,19.97-.28.14,3.44.69,13.77,1.24,21.08l-4.13.69c-1.24-4.68-2.62-7.58-4.13-10.47-2.2-4.55-5.37-5.51-13.64-5.51h-13.09c-4.27,0-4.55.41-4.55,4.41v30.44h15.29c10.33,0,11.02-2.07,12.67-11.43h4.27v28.38h-4.27c-1.79-9.92-2.89-11.3-12.81-11.3h-15.15v27.41c0,9.64,3.03,10.47,9.92,10.61h12.81c8.4,0,9.78-1.24,12.81-4.82,2.62-2.89,5.51-8.54,7.44-12.67l4.13,1.1Z"/>
  <path class="cls-2" d="M665.51,22.87c-2.34-9.09-6.2-18.04-19.15-18.04-10.74,0-14.46,7.85-14.46,15.01,0,9.51,6.06,14.33,17.49,20.25,16.53,8.54,23.69,14.88,23.69,27.96,0,14.46-12.53,25.48-30.3,25.48-8.27,0-15.43-2.34-21.08-4.55-1.1-3.86-2.75-13.22-3.72-20.66l4.27-1.1c2.75,9.23,8.82,21.21,23.14,21.21,9.92,0,15.98-6.89,15.98-15.84,0-10.61-5.65-14.88-17.77-21.49-14.46-7.85-22.59-14.46-22.59-27.27s10.19-23.83,28.37-23.83c7.71,0,15.29,2.07,18.18,2.62.55,4.96,1.1,10.47,2.2,19.42l-4.27.83Z"/>
</svg>